<svg xmlns="http://www.w3.org/2000/svg" viewBox="0 0 340.9 182.3"><defs><style>.cls-1{fill:#cc2128;}.cls-2,.cls-3{fill:#fff;}.cls-3{opacity:0.75;font-size:24px;font-family:Helvetica-Light, Helvetica;}</style></defs><title>Asset 1</title><g id="Layer_2" data-name="Layer 2"><g id="Logo"><path id="bg-color" class="cls-1" d="M320.7,0H49.8A20.1,20.1,0,0,0,29.7,20.1V144.7A38.8,38.8,0,0,1,0,182.3H320.7a20.3,20.3,0,0,0,20.2-20.2V20.1A20.2,20.2,0,0,0,320.7,0Z"/><g id="dice-word"><path id="path-d" class="cls-2" d="M121.2,58.7h12.5c8.1,0,13.4.3,16.1,1.1a9.2,9.2,0,0,1,5.7,3.6,8.7,8.7,0,0,1,1.6,5.6,105.5,105.5,0,0,1-2,12.2l-4.8,22.5c-1.2,5.7-2.3,9.5-3.3,11.5a11.5,11.5,0,0,1-3.8,4.6,15.2,15.2,0,0,1-5.5,2.3,49.7,49.7,0,0,1-9,.6H107.6Zm14.3,10.9-8.9,42.1c2.4,0,4-.5,4.8-1.4s1.6-3.6,2.6-7.8l5.2-24.9a38,38,0,0,0,.9-5.6,2,2,0,0,0-.9-1.8A7.4,7.4,0,0,0,135.5,69.6Z"/><path id="path-i" class="cls-2" d="M179.6,70.2l-11.2,52.5H152l11.1-52.5ZM182,58.7,180.3,67H163.8l1.8-8.3Z"/><path id="path-c" class="cls-2" d="M216.3,90h-15l1.2-6a10.3,10.3,0,0,0,.4-4.3,1.5,1.5,0,0,0-1.6-1.1,2.7,2.7,0,0,0-2.1,1,17.2,17.2,0,0,0-1.4,4.4l-5.2,24.7a8.8,8.8,0,0,0-.2,4.2,1.7,1.7,0,0,0,1.8,1.4,2.9,2.9,0,0,0,2.5-1.5,17.8,17.8,0,0,0,1.7-5.5l1.3-6.2H214a69.5,69.5,0,0,1-2.5,9.4,17.4,17.4,0,0,1-4,6.4,18,18,0,0,1-6.9,5,23.6,23.6,0,0,1-9.2,1.7c-4.5,0-7.9-.8-10.2-2.3a9.1,9.1,0,0,1-4.2-6.5c-.6-2.7-.3-6.7.8-11.8L181,88.1A32.5,32.5,0,0,1,184.5,78a17.7,17.7,0,0,1,7-6,22.9,22.9,0,0,1,11.2-2.7c4.2,0,7.6.9,10.1,2.6a9.7,9.7,0,0,1,4.5,6.7C217.7,81.3,217.4,85.1,216.3,90Z"/><path id="path-e" class="cls-2" d="M255.8,97.4H235.1l-2.4,11.3c-.5,2.3-.7,3.9-.5,4.5s.8,1.1,1.8,1.1a3.4,3.4,0,0,0,2.8-1.4,23.8,23.8,0,0,0,1.7-5.2l1.5-7h15.1l-.8,3.9a38.7,38.7,0,0,1-2.2,7.5,21.8,21.8,0,0,1-4,5.6,21.1,21.1,0,0,1-6.7,4.4,24.2,24.2,0,0,1-9,1.5,21.7,21.7,0,0,1-8.6-1.5,9.9,9.9,0,0,1-5.2-4,10.9,10.9,0,0,1-1.8-5.6,38.2,38.2,0,0,1,1-8.9l3.3-15.3a29.4,29.4,0,0,1,4.1-10.8,17.7,17.7,0,0,1,7.4-6.1,24.8,24.8,0,0,1,10.2-2.1c4.5,0,8,.9,10.6,2.6a10.4,10.4,0,0,1,4.7,6.7c.6,2.8.3,6.8-.8,11.8Zm-14.1-8.5.8-3.8a19.9,19.9,0,0,0,.7-5.3c-.1-.8-.7-1.2-1.6-1.2a2.7,2.7,0,0,0-2.3,1,28.2,28.2,0,0,0-1.6,5.5l-.8,3.8Z"/></g></g><g id="Registered_Trademark" data-name="Registered Trademark"><text class="cls-3" transform="translate(261 72.4)">®</text></g></g></svg>